<svg id="Layer_1" data-name="Layer 1" xmlns="http://www.w3.org/2000/svg" viewBox="0 0 178.40225 178.40225">
  <defs>
    <style>
      .cls-1 {
        fill: #3bc8c8;
      }

      .cls-2 {
        fill: none;
        stroke: blue;
        stroke-miterlimit: 10;
        stroke-width: 9px;
      }
    </style>
  </defs>
  <path class="cls-1" d="M7233.61719,7147.61914h18.6875q-7.11036,22.34473-13.10156,53.92969,7.10742,39.20508,13.10156,53.92969H7234.125a117.942,117.942,0,0,1-6.60156-19.70313q-8.43165,22.14258-35.2417,22.14063-20.31446,0-32.70313-15.23438-12.39258-15.23437-12.39062-41.33594,0-26.8125,12.4414-41.48828,12.43945-14.6748,32.957-14.67578,12.6936,0,20.71826,5.12891,8.02147,5.12988,14.92969,15.58984Q7228.94336,7162.34668,7233.61719,7147.61914Zm-37.98389,12.69531a24.21106,24.21106,0,0,0-20.71875,10.5625q-7.61718,10.56446-7.61719,30.46875,0,19.4004,7.21094,30.46875,7.21,11.07129,20.10938,11.07032,12.59106,0,21.02295-10.918,8.42871-10.916,8.42968-31.4336,0-19.90429-7.87109-30.0625A24.809,24.809,0,0,0,7195.6333,7160.31445Z" transform="translate(-7110.79888 -7110.79888)"/>
  <circle class="cls-2" cx="89.20112" cy="89.20112" r="84.70112"/>
</svg>
