<svg xmlns="http://www.w3.org/2000/svg" viewBox="0 0 204.31787 235.78316"><defs><style>.a{fill:#3bc8c8;}.b{fill:none;stroke:blue;stroke-miterlimit:10;stroke-width:9px;}</style></defs><path d="M199.35156,246.1875a18.94268,18.94268,0,0,1-8.20215,1.71191c-8.61474,0-14.22021-5.90136-14.22021-14.63378,0-8.792,6.01855-15.16407,15.34131-15.16407a17.3587,17.3587,0,0,1,7.19873,1.47461l-1.17969,4.0127a12.04306,12.04306,0,0,0-6.019-1.35742c-6.54932,0-10.08985,4.83886-10.08985,10.79785,0,6.60937,4.24854,10.68066,9.91309,10.68066a14.76059,14.76059,0,0,0,6.37256-1.416Z" transform="translate(-176.9292 -23.79888)"/><path d="M205.42627,205.35645h5.19238V247.25h-5.19238Z" transform="translate(-176.9292 -23.79888)"/><path d="M222.24121,233.915c.11817,7.02148,4.60254,9.91309,9.79492,9.91309a18.77488,18.77488,0,0,0,7.90674-1.47559l.88526,3.71777a22.94808,22.94808,0,0,1-9.5,1.8291c-8.792,0-14.04346-5.84179-14.04346-14.457,0-8.61425,5.07471-15.40039,13.39453-15.40039,9.32275,0,11.80078,8.20215,11.80078,13.45313a19.59057,19.59057,0,0,1-.17676,2.41992Zm15.22363-3.71777c.0586-3.30372-1.35742-8.4375-7.19873-8.4375-5.25146,0-7.55273,4.83886-7.96582,8.4375Z" transform="translate(-176.9292 -23.79888)"/><path d="M268.97021,240.40527a40.21288,40.21288,0,0,0,.47217,6.84473h-4.72021l-.41309-3.59961h-.17724a10.63732,10.63732,0,0,1-8.73291,4.249c-5.78223,0-8.73243-4.07128-8.73243-8.20214,0-6.90332,6.13623-10.67969,17.17041-10.6211v-.58984c0-2.36035-.64892-6.6084-6.49072-6.6084a14.23141,14.23141,0,0,0-7.43457,2.124l-1.18017-3.42187a17.72479,17.72479,0,0,1,9.38183-2.53809c8.73291,0,10.85693,5.96,10.85693,11.6836Zm-5.01513-7.72949c-5.66455-.11816-12.09619.88477-12.09619,6.43164a4.59465,4.59465,0,0,0,4.89746,4.95606,7.106,7.106,0,0,0,6.90381-4.7793,5.42854,5.42854,0,0,0,.29492-1.65234Z" transform="translate(-176.9292 -23.79888)"/><path d="M277.34619,226.4209c0-2.9502-.05908-5.36914-.23633-7.72949h4.603l.29492,4.7207h.11817a10.5,10.5,0,0,1,9.44043-5.37012c3.95312,0,10.08984,2.36035,10.08984,12.15528V247.25h-5.19238V230.78711c0-4.60156-1.71094-8.4375-6.6084-8.4375a7.37935,7.37935,0,0,0-6.96289,5.31055,7.48613,7.48613,0,0,0-.35352,2.41894V247.25h-5.19287Z" transform="translate(-176.9292 -23.79888)"/><path d="M315.87305,210.667a3.216,3.216,0,0,1-6.43164,0,3.165,3.165,0,0,1,3.24609-3.24609A3.08209,3.08209,0,0,1,315.87305,210.667Zm-5.78223,36.583V218.69141h5.19238V247.25Z" transform="translate(-176.9292 -23.79888)"/><path d="M323.89648,226.4209c0-2.9502-.05859-5.36914-.23632-7.72949h4.60351l.29492,4.7207h.11719a10.50283,10.50283,0,0,1,9.44141-5.37012c3.95312,0,10.08984,2.36035,10.08984,12.15528V247.25h-5.19238V230.78711c0-4.60156-1.71094-8.4375-6.6084-8.4375a7.3775,7.3775,0,0,0-6.96289,5.31055,7.45818,7.45818,0,0,0-.35449,2.41894V247.25h-5.19239Z" transform="translate(-176.9292 -23.79888)"/><path d="M381.01074,243.11914c0,6.54981-1.29785,10.5625-4.07129,13.041-2.77343,2.5957-6.78613,3.42187-10.38476,3.42187-3.42285,0-7.19922-.82617-9.5-2.36035l1.29785-3.95313a16.11078,16.11078,0,0,0,8.37891,2.24219c5.31054,0,9.20507-2.77344,9.20507-9.97168v-3.18652h-.11816a10.19393,10.19393,0,0,1-9.08691,4.7793c-7.08106,0-12.15528-6.01856-12.15528-13.92481,0-9.67676,6.31348-15.165,12.86328-15.165,4.95606,0,7.6709,2.59668,8.91016,4.957h.11816l.23536-4.30761h4.54394c-.11816,2.06543-.23633,4.36621-.23633,7.84765ZM375.877,229.96191a7.38442,7.38442,0,0,0-.29492-2.36035,7.47947,7.47947,0,0,0-7.25781-5.4873c-4.95606,0-8.49609,4.18847-8.49609,10.79687,0,5.60645,2.832,10.26758,8.4375,10.26758a7.58959,7.58959,0,0,0,7.19824-5.31055,9.03817,9.03817,0,0,0,.41308-2.77343Z" transform="translate(-176.9292 -23.79888)"/><path class="a" d="M309.61816,60.61914h18.68653q-7.11036,22.34474-13.10156,53.92969,7.10742,39.20508,13.10156,53.92969H310.126a117.943,117.943,0,0,1-6.60157-19.70313Q295.09278,170.918,268.28223,170.916q-20.31446,0-32.70313-15.23438-12.39258-15.23437-12.39062-41.33594,0-26.8125,12.4414-41.48828,12.43946-14.6748,32.957-14.67578,12.69434,0,20.71875,5.12891,8.02149,5.12988,14.92969,15.58984Q304.94434,75.34668,309.61816,60.61914ZM271.63379,73.31445A24.211,24.211,0,0,0,250.915,83.87695q-7.6172,10.56446-7.61719,30.46875,0,19.4004,7.21094,30.46875,7.21,11.07129,20.10937,11.07032,12.59181,0,21.02344-10.918,8.42871-10.916,8.42969-31.4336,0-19.90429-7.87109-30.0625A24.80921,24.80921,0,0,0,271.63379,73.31445Z" transform="translate(-176.9292 -23.79888)"/><circle class="b" cx="103.07143" cy="89.20112" r="84.70112"/></svg>