<svg xmlns="http://www.w3.org/2000/svg" viewBox="0 0 776.28804 178.40225">
  <defs>
    <style>
      .cls-1 {
        fill: #3bc8c8;
      }

      .cls-2 {
        fill: none;
        stroke: blue;
        stroke-miterlimit: 10;
        stroke-width: 9px;
      }

      .cls-3 {
        fill: #fff;
      }
    </style>
  </defs>
  <g id="logo">
    <path class="cls-1" d="M7233.61719,7147.61914h18.6875q-7.11036,22.34473-13.10156,53.92969,7.10742,39.20508,13.10156,53.92969H7234.125a117.942,117.942,0,0,1-6.60156-19.70313q-8.43165,22.14258-35.2417,22.14063-20.31446,0-32.70313-15.23438-12.39258-15.23437-12.39062-41.33594,0-26.8125,12.4414-41.48828,12.43945-14.6748,32.957-14.67578,12.6936,0,20.71826,5.12891,8.02147,5.12988,14.92969,15.58984Q7228.94336,7162.34668,7233.61719,7147.61914Zm-37.98389,12.69531a24.21106,24.21106,0,0,0-20.71875,10.5625q-7.61718,10.56446-7.61719,30.46875,0,19.4004,7.21094,30.46875,7.21,11.07129,20.10938,11.07032,12.59106,0,21.02295-10.918,8.42871-10.916,8.42968-31.4336,0-19.90429-7.87109-30.0625A24.809,24.809,0,0,0,7195.6333,7160.31445Z" transform="translate(-7110.79888 -7110.79888)"/>
    <circle class="cls-2" cx="89.20112" cy="89.20112" r="84.70112"/>
  </g>
  <g id="text">
    <g>
      <path class="cls-3" d="M7370.877,7246.13086c-3.85058,2.00781-12.38965,4.85547-23.27343,4.85547-24.44532,0-40.35157-16.74414-40.35157-41.52442,0-24.94775,17.07813-43.03076,43.53321-43.03076,8.707,0,16.4082,2.17676,20.42675,4.186l-3.34863,11.38574c-3.51562-2.00928-9.041-3.85107-17.07812-3.85107-18.585,0-28.63086,13.72949-28.63086,30.64111,0,18.75195,12.05468,30.30469,28.1289,30.30469a41.86459,41.86459,0,0,0,18.083-4.01758Z" transform="translate(-7110.79888 -7110.79888)"/>
      <path class="cls-3" d="M7388.125,7130.26563h14.73438v118.8789H7388.125Z" transform="translate(-7110.79888 -7110.79888)"/>
      <path class="cls-3" d="M7435.84375,7211.30371c.335,19.92481,13.06055,28.12988,27.79492,28.12988,10.54785,0,16.91016-1.84179,22.43555-4.1875l2.51172,10.54883c-5.19043,2.34375-14.06446,5.19141-26.957,5.19141-24.94727,0-39.84961-16.57617-39.84961-41.02149,0-24.4458,14.39941-43.70117,38.00781-43.70117,26.45508,0,33.4873,23.27344,33.4873,38.17578a55.43,55.43,0,0,1-.50293,6.86426Zm43.19824-10.54785c.168-9.37695-3.85058-23.94385-20.42676-23.94385-14.90136,0-21.43164,13.73-22.60351,23.94385Z" transform="translate(-7110.79888 -7110.79888)"/>
      <path class="cls-3" d="M7568.45313,7229.7207a114.08248,114.08248,0,0,0,1.33984,19.42383h-13.39453l-1.17285-10.21484h-.502c-4.5205,6.36328-13.22754,12.05664-24.78027,12.05664-16.4082,0-24.78027-11.55274-24.78027-23.27344,0-19.58984,17.41308-30.30615,48.72363-30.13867v-1.67432c0-6.69726-1.8418-18.75293-18.418-18.75293a40.37349,40.37349,0,0,0-21.09668,6.02783l-3.34863-9.71142c6.69726-4.353,16.4082-7.19971,26.62207-7.19971,24.78027,0,30.80762,16.91113,30.80762,33.15235Zm-14.23145-21.93359c-16.07422-.334-34.32422,2.51172-34.32422,18.25,0,9.54492,6.36231,14.06641,13.89649,14.06641a20.16377,20.16377,0,0,0,19.58984-13.5625,15.36869,15.36869,0,0,0,.83789-4.68946Z" transform="translate(-7110.79888 -7110.79888)"/>
      <path class="cls-3" d="M7592.23047,7190.03955c0-8.37158-.167-15.23633-.66992-21.93408h13.06054l.83692,13.395h.335c4.01855-7.70215,13.39453-15.23682,26.78906-15.23682,11.21875,0,28.63184,6.69776,28.63184,34.49219v48.38867h-14.73438v-46.71484c0-13.06006-4.85547-23.94287-18.75293-23.94287-9.71093,0-17.24609,6.86474-19.75683,15.06884a21.18116,21.18116,0,0,0-1.00489,6.86475v48.72412h-14.73437Z" transform="translate(-7110.79888 -7110.79888)"/>
      <path class="cls-3" d="M7701.56738,7145.33447c.168,5.023-3.51562,9.04151-9.376,9.04151a8.76125,8.76125,0,0,1-8.874-9.04151,8.97847,8.97847,0,0,1,9.209-9.209C7698.05176,7136.12549,7701.56738,7140.144,7701.56738,7145.33447Zm-16.4082,103.81006v-81.03906h14.73437v81.03906Z" transform="translate(-7110.79888 -7110.79888)"/>
      <path class="cls-3" d="M7724.33887,7190.03955c0-8.37158-.167-15.23633-.66992-21.93408h13.06054l.83692,13.395h.335c4.01855-7.70215,13.39453-15.23682,26.78906-15.23682,11.21875,0,28.63184,6.69776,28.63184,34.49219v48.38867h-14.73438v-46.71484c0-13.06006-4.85547-23.94287-18.75293-23.94287-9.71094,0-17.24609,6.86474-19.75683,15.06884a21.18116,21.18116,0,0,0-1.00489,6.86475v48.72412h-14.73437Z" transform="translate(-7110.79888 -7110.79888)"/>
      <path class="cls-3" d="M7886.417,7237.42383c0,18.58594-3.68359,29.9707-11.55273,37.00195-7.86914,7.36719-19.25488,9.71289-29.46875,9.71289-9.71094,0-20.42676-2.3457-26.957-6.69726l3.68359-11.21875a45.70908,45.70908,0,0,0,23.77637,6.36132c15.06836,0,26.11914-7.86914,26.11914-28.29492v-9.043h-.335c-4.52051,7.53516-13.22657,13.5625-25.78418,13.5625-20.09278,0-34.49219-17.07812-34.49219-39.51367,0-27.45947,17.916-43.03125,36.501-43.03125,14.06445,0,21.7666,7.36719,25.28222,14.06494h.335l.66993-12.22314h12.89257c-.335,5.86035-.66992,12.39014-.66992,22.269Zm-14.5664-37.33838a21.00682,21.00682,0,0,0-.83692-6.69727c-2.67969-8.53906-9.8789-15.57129-20.59472-15.57129-14.06446,0-24.11036,11.8877-24.11036,30.64014,0,15.90625,8.03614,29.13477,23.94239,29.13477a21.54069,21.54069,0,0,0,20.42773-15.07032,25.63994,25.63994,0,0,0,1.17188-7.86914Z" transform="translate(-7110.79888 -7110.79888)"/>
    </g>
  </g>
</svg>
